<svg xmlns="http://www.w3.org/2000/svg" xmlns:xlink="http://www.w3.org/1999/xlink" version="1.1" x="0px" y="0px" viewBox="0 0 512 640" style="enable-background:new 0 0 512 512;" xml:space="preserve"><g><g><path d="M331.277,362.379c-7.255-7.189-13.535-13.42-18.285-18.24l-0.61-0.647c-1.874-2.478-7.981-1.339-14.968,0l-0.883,0.152    c-4.173,0.867-8.322,1.71-12.014,1.942c-4.599,0.264-8.659-0.355-11.665-2.766l-20.43-21.854c-1.738-1.847-1.768-4.74,0-6.635    c18.998-20.41,38.572-42.883,58.181-62.427c1.979-1.834,5.068-1.718,6.91,0.268l24.478,26.125    c3.8,4.217,2.601,10.671,1.244,17.908c-0.285,1.643-0.534,3.621-0.939,5.188c-1.966,7.51-3.924,14.979-1.966,17.154    c6.773,7.342,15.77,17.617,26.183,29.519c36.56,41.749,90.591,103.447,111.938,110.11c0.767,0.22,1.485,0.644,2.071,1.271    c1.873,1.934,1.817,5.02-0.141,6.881l-28.671,27.346c-0.598,0.563-1.345,0.991-2.179,1.203c-2.604,0.671-5.293-0.92-5.943-3.518    C437.437,467.577,370.209,400.955,331.277,362.379 M320.042,337.381c4.698,4.808,10.95,10.986,18.125,18.076    c36.363,36.053,97.003,96.162,111.998,126.209l18.294-17.445c-26.532-15.219-75.318-70.943-109.317-109.755    c-10.646-12.161-19.851-22.677-26.051-29.358l-0.076-0.08c-5.413-6.039-2.841-15.975-0.208-25.922l0.826-4.648    c0.871-4.771,1.665-8.984,1.092-9.628l-20.77-22.217l-51.295,55.045l16.469,17.669c0.902,0.552,2.624,0.647,4.771,0.535    c3.162-0.191,6.931-0.975,10.742-1.758l0.938-0.184C305.645,332.01,314.452,330.307,320.042,337.381z M194.457,258.787    L36.795,89.62c-2.121-2.314-3.772-4.648-4.896-7.23l-0.132-0.288c-1.154-2.646-1.709-5.443-1.651-8.544v-0.448    c0.19-3.125,0.959-5.959,2.341-8.617c1.344-2.597,3.227-4.979,5.72-7.262l34.804-32.964c2.668-2.486,5.605-3.949,8.484-4.768    c2.765-0.787,5.538-0.987,7.985-0.871c2.958,0.076,5.951,0.523,8.695,1.554c2.966,1.099,5.606,2.898,7.594,5.604l153.83,164.42    c1.727,1.834,1.746,4.764,0,6.635l-25.626,27.401c-7.427,7.761-0.632,0.667-7.161,7.646c-8.32,8.88-16.835,18.604-25.417,27.152    C199.4,260.861,196.301,260.74,194.457,258.787z M44.128,83.153l153.938,165.159l18.639-19.942l13.459-14.368l19.158-20.486    L97.88,31.589c-0.769-1.071-1.882-1.814-3.18-2.294c-1.619-0.627-3.577-0.899-5.574-0.956c-1.547-0.056-3.284,0.056-4.972,0.536    c-1.557,0.439-3.112,1.207-4.444,2.446c-11.807,10.747-23.105,22.361-34.93,33.08c-1.651,1.546-2.869,3.021-3.638,4.512    c-0.718,1.411-1.142,3.018-1.266,4.808v0.048c-0.02,1.623,0.267,3.117,0.883,4.528l0.096,0.272    c0.672,1.431,1.72,2.905,3.138,4.453L44.128,83.153z M252.364,410.227c0-2.59,2.101-4.684,4.715-4.684    c2.58,0,4.698,2.094,4.698,4.684v73.162c0,2.561-2.118,4.684-4.698,4.684c-2.614,0-4.715-2.123-4.715-4.684V410.227z     M279.727,424.243c-5.799-5.775-13.812-9.361-22.647-9.361c-8.85,0-16.875,3.586-22.674,9.361    c-5.798,5.755-9.368,13.743-9.368,22.549c0,8.809,3.569,16.802,9.368,22.584c5.798,5.771,13.824,9.336,22.674,9.336    c8.836,0,16.849-3.564,22.647-9.336c5.786-5.782,9.377-13.775,9.377-22.584C289.104,437.986,285.513,429.998,279.727,424.243z     M257.079,405.522c11.416,0,21.813,4.616,29.288,12.094c7.508,7.449,12.15,17.801,12.15,29.176c0,11.426-4.643,21.74-12.15,29.214    c-7.476,7.45-17.872,12.087-29.288,12.087c-11.452,0-21.829-4.637-29.335-12.087c-7.476-7.474-12.132-17.788-12.132-29.214    c0-11.375,4.657-21.727,12.132-29.176C235.25,410.139,245.627,405.522,257.079,405.522z M182.19,321.742l13.055,12.025    l96.065-115.569L182.19,321.742z M192.527,343.986l-20.376-18.764c-1.9-1.715-2.034-4.688-0.269-6.598l170.475-161.783    c1.878-1.794,4.863-1.719,6.649,0.156c1.641,1.719,1.689,4.396,0.212,6.211L199.313,343.527c-1.649,1.982-4.627,2.246-6.613,0.611    L192.527,343.986z M45.759,451.371c5.048-3.7,10.732-8.496,16.817-14.031c1.15-1.215,2.956-1.779,4.675-1.291    c4.695,1.311,9.013,3.688,12.688,6.826c3.752,3.181,6.854,7.157,9.071,11.565c0.767,1.596,0.614,3.565-0.574,5.028    c-5.664,6.954-10.445,13.424-14.004,19.128c-3.198,5.067-5.367,9.411-6.211,12.696c-0.193,0.756-0.596,1.503-1.162,2.115    c-1.796,1.854-4.769,1.898-6.641,0.115l-28.48-27.153c-0.652-0.543-1.17-1.291-1.438-2.17c-0.769-2.454,0.614-5.083,3.08-5.851    C36.757,457.366,40.912,454.9,45.759,451.371z M67.068,445.849c-5.682,5.104-10.999,9.567-15.78,13.057    c-2.849,2.094-5.547,3.864-8.083,5.295l18.605,17.737c1.228-2.581,2.801-5.367,4.634-8.281c3.313-5.275,7.64-11.234,12.718-17.589    c-1.479-2.314-3.282-4.392-5.309-6.099C71.83,448.238,69.544,446.832,67.068,445.849z M180.617,362.191    C141.707,400.734,74.44,467.406,68.22,491.274c-0.193,0.774-0.566,1.502-1.162,2.134c-1.796,1.854-4.769,1.898-6.641,0.115    l-28.48-27.153c-0.652-0.543-1.17-1.291-1.438-2.17c-0.769-2.454,0.614-5.083,3.08-5.851    c21.416-6.654,75.491-68.426,112.072-110.174c10.549-12.066,19.676-22.497,26.231-29.523c1.92-2.354,0.02-9.672-1.938-17.053    c-0.461-1.596-0.692-3.75-0.999-5.42c-1.334-7.21-2.524-13.625,1.21-17.736L406.443,25.862c1.958-2.666,4.566-4.424,7.487-5.503    c2.677-1.015,5.605-1.443,8.491-1.542h0.116c2.375-0.076,5.012,0.08,7.7,0.795l0.229,0.08c2.881,0.819,5.767,2.242,8.379,4.652    c11.163,11.11,23.333,22.189,34.861,33.02c2.464,2.274,4.358,4.648,5.683,7.21c1.336,2.637,2.103,5.447,2.295,8.536v0.152    c0.097,3.05-0.421,5.872-1.517,8.501l-0.108,0.284c-1.111,2.622-2.821,5.052-5,7.421L239.042,342.648    c-2.985,2.361-7.008,3.009-11.528,2.741c-3.726-0.228-7.813-1.06-11.92-1.923l-1.019-0.188c-6.908-1.318-12.955-2.466-15.05-0.061    l-0.489,0.616C194.285,348.65,187.931,354.922,180.617,362.191z M61.868,481.993c14.761-29.95,75.691-90.315,112.134-126.421    c7.229-7.189,13.507-13.404,18.238-18.191c5.499-6.807,14.157-5.164,24.082-3.289l1.189,0.231c3.764,0.771,7.498,1.538,10.56,1.73    c2.197,0.132,3.962,0,4.896-0.56L468.15,83.137c1.48-1.607,2.58-3.193,3.273-4.784l0.097-0.208    c0.554-1.395,0.822-2.866,0.807-4.453c-0.116-1.798-0.558-3.405-1.288-4.856c-0.799-1.571-2.026-3.053-3.688-4.572l-34.858-33.056    c-1.412-1.283-3.006-2.066-4.599-2.526l-0.172-0.056c-1.662-0.44-3.331-0.556-4.84-0.479c-2.002,0.04-3.973,0.328-5.649,0.959    c-1.356,0.496-2.544,1.259-3.303,2.406L177.143,284.697c-0.652,0.695,0.132,4.988,1.027,9.796l0.843,4.724    c2.602,9.875,5.156,19.711-0.17,25.658l-0.068,0.124c-6.48,6.935-15.549,17.306-26.068,29.312    c-34.076,38.91-83.084,94.871-109.518,109.87L61.868,481.993z M169.637,156.842l63.962,60.704c1.86,1.758,1.958,4.688,0.195,6.559    l-7.576,8.069c-2.006,1.635-4.961,1.359-6.623-0.631l-56.812-68.334c-1.479-1.795-1.441-4.492,0.21-6.211    C164.771,155.124,167.755,155.048,169.637,156.842z M223.77,221.131l-3.072-2.933l2.727,3.289L223.77,221.131z M339.849,325.242    l-20.558,18.896c-1.986,1.654-4.951,1.371-6.604-0.611l-38.489-46.297c-1.469-1.79-1.441-4.436,0.172-6.179l14.025-15.056    c1.785-1.861,4.771-1.938,6.641-0.151l45.082,42.78C341.883,320.535,341.738,323.508,339.849,325.242z M316.748,333.768    l13.053-12.018l-37.779-35.877l-7.969,8.535L316.748,333.768z M460.702,458.925c-4.791-3.509-10.096-7.952-15.79-13.061    c-2.447,0.968-4.723,2.374-6.757,4.104c-2.043,1.727-3.828,3.784-5.317,6.107c5.08,6.346,9.398,12.305,12.709,17.58    c1.854,2.945,3.406,5.7,4.635,8.281l18.603-17.737C466.248,462.79,463.552,460.999,460.702,458.925z M449.435,437.34    c6.056,5.535,11.766,10.331,16.806,14.031c4.839,3.549,8.992,6.003,12.17,6.979c2.468,0.768,3.849,3.396,3.082,5.851    c-0.27,0.879-0.787,1.627-1.433,2.17l-28.486,27.182c-1.854,1.755-4.839,1.71-6.62-0.144c-0.586-0.612-0.983-1.34-1.164-2.095    c-0.863-3.306-3.029-7.629-6.208-12.717c-3.571-5.704-8.362-12.174-14.024-19.128c-1.191-1.463-1.344-3.433-0.558-5.028    c2.199-4.408,5.321-8.385,9.073-11.55c3.676-3.153,7.984-5.531,12.668-6.842C446.489,435.561,448.263,436.125,449.435,437.34z     M270.481,63.77l-8.607-27.133l-9.193,26.901c-0.51,2.006-2.343,3.501-4.533,3.501h-28.072l22.642,16.558    c1.613,1.147,2.351,3.241,1.719,5.22l-8.764,27.224l23.448-16.785c1.598-1.291,3.961-1.375,5.69-0.104l22.535,16.586    c-2.869-8.921-5.971-17.993-8.667-26.921c-0.594-1.867,0.02-3.989,1.701-5.204l22.659-16.574h-28.057    C272.977,67.019,271.115,65.756,270.481,63.77z M266.496,20.223L278.41,57.67h38.991c2.58,0,4.69,2.09,4.69,4.684    c0,1.663-0.874,3.133-2.19,3.957L288.643,89.16l12.086,37.492c0.775,2.466-0.578,5.096-3.025,5.899    c-1.553,0.479-3.138,0.124-4.33-0.763l-31.387-23.104l-32.38,23.18c-2.092,1.519-5.04,1.023-6.544-1.043    c-0.903-1.243-1.096-2.81-0.654-4.168l12.056-37.492L202.96,66.111c-2.091-1.502-2.542-4.448-1.015-6.538    c0.921-1.215,2.339-1.903,3.79-1.903h39.047l12.813-37.523c0.816-2.438,3.473-3.757,5.929-2.938    C264.992,17.709,266.047,18.875,266.496,20.223z"/></g></g><text x="0" y="527" fill="#000000" font-size="5px" font-weight="bold" font-family="'Helvetica Neue', Helvetica, Arial-Unicode, Arial, Sans-serif">Created by ibrandify</text><text x="0" y="532" fill="#000000" font-size="5px" font-weight="bold" font-family="'Helvetica Neue', Helvetica, Arial-Unicode, Arial, Sans-serif">from the Noun Project</text></svg>